HIERARCHY
ROOT Hips
{
  OFFSET 0.0 0.0 0.0
  CHANNELS 6 XPOSITION YPOSITION ZPOSITION ZROTATION XROTATION YROTATION 
  JOINT RightUpLeg
  {
    OFFSET -0.089458038 -0.086670642 0.001016508
    CHANNELS 3 ZROTATION XROTATION YROTATION 
    JOINT RightLeg
    {
      OFFSET 1.524e-006 -0.44256706 0.04075049
      CHANNELS 3 ZROTATION XROTATION YROTATION 
      JOINT RightFoot
      {
        OFFSET 0.001562862 -0.419119812 -0.041630854
        CHANNELS 3 ZROTATION XROTATION YROTATION 
        End Site
        {
          OFFSET 7.5692e-005 -0.04415155 0.084991702
        }
      }
    }
  }
  JOINT Spine
  {
    OFFSET 0.0 0.11890502 0.0
    CHANNELS 3 ZROTATION XROTATION YROTATION 
    JOINT Spine1
    {
      OFFSET 0.0 0.256575052 0.001270508
      CHANNELS 3 ZROTATION XROTATION YROTATION 
      End Site
      {
        OFFSET -0.002899918 0.215084406 0.0252476
      }
      JOINT RightArm
      {
        OFFSET -0.16272758 -0.05365633 0.001021842
        CHANNELS 3 ZROTATION XROTATION YROTATION 
        JOINT RightForeArm
        {
          OFFSET -0.263648698 -0.000263906 -0.014099794
          CHANNELS 3 ZROTATION XROTATION YROTATION 
          End Site
          {
            OFFSET -0.220319092 0.001914652 0.010174732
          }
        }
      }
      JOINT LeftArm
      {
        OFFSET 0.16272758 -0.05365633 0.001020826
        CHANNELS 3 ZROTATION XROTATION YROTATION 
        JOINT LeftForeArm
        {
          OFFSET 0.26260552 -0.000263144 -0.01410081
          CHANNELS 3 ZROTATION XROTATION YROTATION 
          End Site
          {
            OFFSET 0.220897958 0.001915922 0.01017524
          }
        }
      }
    }
  }
  JOINT LeftUpLeg
  {
    OFFSET 0.089458038 -0.086670642 0.001016508
    CHANNELS 3 ZROTATION XROTATION YROTATION 
    JOINT LeftLeg
    {
      OFFSET -3.048e-006 -0.442569346 0.040725598
      CHANNELS 3 ZROTATION XROTATION YROTATION 
      JOINT LeftFoot
      {
        OFFSET -0.002532888 -0.41911778 -0.041605708
        CHANNELS 3 ZROTATION XROTATION YROTATION 
        End Site
        {
          OFFSET -0.00040005 -0.044151042 0.084991194
        }
      }
    }
  }
}
MOTION
Frames: 9
Frame Time: 0.033333
1.06827066 0.98764589843 2.0493482 0.298248907928 3.18537227133 -173.979862614 1.80203911769 3.8154333166 -1.9774846928 -1.80400770627 4.07778685904 -13.4856825916 -0.660764826664 -31.5394127756 0.0354343410632 0.996162813322 0.878799512731 0.0611071878739 2.24677301167 2.23033082535 -0.451542045121 77.7549349831 -11.0193576314 6.97604785974 178.59551321 -27.5614832823 172.980209788 -83.6228871029 -13.7193954433 -15.9174775305 -16.2786681791 50.1946025877 7.92096098895 0.709068511444 2.17223473037 1.61766275008 -0.274070411792 5.94167504721 -2.31655171834 2.92008089378 -31.9081098021 -0.165391176462 
1.06810048 0.98764589843 2.04938376 0.325619823809 3.13893893781 -173.862151134 1.81741707516 3.78784490188 -1.97942574718 -1.79708296167 4.04056318183 -13.5987478356 -0.647436672994 -31.5117129434 0.0343681578719 1.02392048867 0.75059995694 0.0137011760471 2.21861214172 2.38680939202 -0.499733565388 77.7665394745 -11.2232439008 7.03976242564 178.672216234 -27.8599301056 173.299165961 -83.474569545 -13.5412871617 -15.8624210832 -16.3644604777 49.9021373026 7.88377402402 0.770507770575 2.07979153505 1.69391615591 -0.363822005652 5.99682711721 -2.50029106409 2.97216044587 -31.9199021237 -0.169535914009 
1.06780584 0.98764589843 2.04955648 0.357714695956 3.09615570006 -173.68835014 1.82829521863 3.75244531208 -1.98856496718 -1.78189155374 4.01661312351 -13.7493321625 -0.620519911331 -31.4838116207 0.032129916887 1.05950129193 0.467299825145 -0.0492016378771 2.16818976428 2.90715753554 -0.567630554937 77.8421428385 -11.6055193433 7.31364105852 178.832630057 -28.2272935376 173.926477856 -83.3533131967 -13.4487620041 -16.0056569802 -16.3796234977 49.5388258803 7.84012826145 0.9026497329 1.96613121085 1.88951271006 -0.590765846399 6.0746895662 -2.85836351788 3.09847156108 -31.9351915022 -0.179462219926 
1.0675747 0.98764589843 2.0499197 0.378111054881 3.07954297245 -173.569969302 1.8294155831 3.71434907821 -1.99689630386 -1.76816788943 4.02823981302 -13.8471882827 -0.618153144062 -31.4673132987 0.0318897697037 1.0282532832 0.583799747136 -0.0543028186866 2.21202314361 2.7917585013 -0.577385292371 77.7059556966 -11.8678865461 7.22841737315 178.806033301 -29.2424030823 174.086386244 -83.1996749215 -13.5539605777 -15.9396858906 -16.3574988074 49.5606517497 7.84318903997 0.984630038909 1.88333843249 2.01258759626 -0.736719945329 6.13749998581 -3.09556040639 3.19272625063 -31.9399794648 -0.186895546816 
1.0674477 0.98764589843 2.05036928 0.394679519662 3.07133031031 -173.526556619 1.8377302712 3.67659179247 -1.98799315228 -1.76947021441 4.03337013887 -13.8986119232 -0.629501770172 -31.4436125423 0.0325849749054 0.997095454309 0.710299866485 -0.0319024529114 2.26750477024 2.64797341432 -0.560698713342 77.5868167069 -12.2466102903 7.18087584144 178.073864342 -32.9966404652 173.248622562 -83.1549440126 -13.7529342335 -15.9260203896 -16.2775360752 49.9381802108 7.88986399144 0.990377749817 1.81828771084 2.00430962043 -0.731390209982 6.18139889226 -3.11935379725 3.2191402997 -31.9306767471 -0.188997564214 
1.06731308 0.98764589843 2.05073758 0.420485094924 3.07544699338 -173.549970508 1.853567132 3.66572880349 -1.97414067487 -1.77086314611 4.00661458034 -13.8960412107 -0.615937494728 -31.4058108604 0.0314001938835 1.15149743003 0.869299946896 -0.0196022560518 2.05133974173 2.46590426327 -0.505267886246 77.5839138765 -11.9922309937 7.06298037306 178.124517025 -32.0856810602 173.122305043 -83.0217416634 -13.836539164 -15.8477276387 -16.2609472533 50.2354061379 7.92636622991 1.00089986968 1.78900540921 2.00437749544 -0.723377597672 6.20216437489 -3.06847721222 3.23438827014 -31.912474293 -0.190138219145 
1.06709464 0.98764589843 2.05103222 0.453430112179 3.09277240854 -173.621373305 1.86624140178 3.67503536312 -1.96874994806 -1.75997667835 3.96765347377 -13.8347155035 -0.587984091777 -31.3628114044 0.029043595192 1.42276191473 1.07259988721 0.0234041000934 1.67394372228 2.27114760894 -0.38970612809 77.5035430405 -11.8350973693 6.83792393236 178.049439586 -32.074988399 172.912003519 -82.8423057638 -13.8089298318 -15.7707804351 -16.2835244436 50.2951429723 7.93322971625 1.02819373249 1.79127132446 2.03399426289 -0.740514488939 6.20732116771 -3.00473233736 3.23796024563 -31.8974751976 -0.190460585398 
1.06690922 0.98764589843 2.05136496 0.476059382673 3.10234000947 -173.725369766 1.86894295504 3.6621583221 -1.9616070643 -1.75207510997 3.95060062584 -13.7400875014 -0.589604607518 -31.3282130812 0.0290329163513 1.51802245636 1.32319803375 0.0986262974389 1.61966303501 2.00817273274 -0.298583373754 77.2759338166 -11.8655642818 6.63327396247 177.952341617 -32.5304834695 172.789087434 -82.7836685897 -13.7995229538 -15.6721866544 -16.3047765772 50.2635840833 7.92888230084 0.980336624685 1.79497221978 1.93915196363 -0.626089877239 6.19178504867 -2.81362663259 3.16075264102 -31.8826844229 -0.184306078028 
1.06689144 0.98764589843 2.05176628 0.487436290035 3.07609223282 -173.826565848 1.87578808525 3.60105416912 -1.93351897855 -1.76443732548 3.94737080014 -13.6718615956 -0.616587750082 -31.3000112301 0.0310137879374 1.46855705245 1.46099325828 0.174256641943 1.73287758265 1.84918407155 -0.237923903446 77.1414337315 -11.9786244031 6.59493269556 177.894107424 -32.7156601432 172.742259657 -82.8343690839 -13.8185868655 -15.6826283061 -16.2863931231 50.362505713 7.94140374514 0.863124068504 1.76520252011 1.72251767978 -0.38527152105 6.15388817095 -2.52013148297 3.02674902526 -31.8551997417 -0.17365521177 
